<?xml version="1.0"?>
<svg xmlns="http://www.w3.org/2000/svg" width="324" height="35" viewBox="0 0 324 35" fill="none">
<path d="M1.36242 13.8335H0.316194C0.111598 13.8335 0 13.7829 0 13.5621L0.00465001 7.13522C0.00465001 5.9207 0.581238 4.81659 2.45515 4.81659H6.31922C6.56567 4.81659 6.60752 4.9086 6.60752 5.11102V5.9069C6.60752 6.12772 6.55172 6.20133 6.31922 6.20133H2.63185C1.92971 6.20133 1.68327 6.48195 1.68327 7.03861V8.54296H5.80773C6.04023 8.54296 6.08208 8.60736 6.08208 8.84199V9.57806C6.08208 9.77128 6.04023 9.87249 5.80773 9.87249H1.68327V13.5667C1.67862 13.7921 1.61352 13.8335 1.36242 13.8335Z" fill="#929192"/>
<path d="M11.7412 10.6731H10.4206C9.8161 10.6731 8.85356 10.7513 8.85356 11.7818C8.85356 12.5133 9.4348 12.7709 10.309 12.7709C10.5694 12.7709 11.2576 12.7341 11.7412 12.5685V10.6731ZM13.0989 13.5254C12.2898 13.8704 11.1739 13.9762 10.295 13.9762C7.87708 13.9762 7.2168 12.9963 7.2168 11.8278C7.2168 10.6317 8.02588 9.52296 10.216 9.52756H11.7551V9.31134C11.7551 8.65348 11.5226 8.17503 10.3415 8.17503C9.7231 8.17503 8.88611 8.30384 8.42577 8.43266C8.23513 8.48326 8.15143 8.45566 8.10958 8.30384L7.91428 7.56777C7.87243 7.42976 7.90033 7.35155 8.03983 7.29634C8.80707 7.02492 9.7975 6.92371 10.5973 6.92371C12.4944 6.92371 13.3593 7.74719 13.3593 9.24234V13.1021C13.364 13.3045 13.2942 13.4379 13.0989 13.5254Z" fill="#929192"/>
<path d="M18.1731 13.5299C18.201 13.7002 18.1824 13.737 18.0057 13.8106C17.6476 13.9394 17.1129 13.9762 16.7548 13.9762C15.7365 13.9762 15.2669 13.5805 15.2715 12.4718L15.2762 4.65106C15.2762 4.45784 15.3599 4.43024 15.5366 4.43024H16.62C16.8153 4.43024 16.899 4.45784 16.899 4.65106L16.8943 12.113C16.8943 12.5638 17.0059 12.6927 17.364 12.6927C17.5128 12.6927 17.736 12.6651 17.8569 12.6559C18.0103 12.642 18.0615 12.6651 18.0754 12.8077L18.1731 13.5299Z" fill="#929192"/>
<path d="M23.5615 10.6731H22.2409C21.6364 10.6731 20.6739 10.7467 20.6739 11.7772C20.6739 12.5086 21.2505 12.7663 22.1293 12.7663C22.3897 12.7663 23.0779 12.7295 23.5615 12.5638V10.6731ZM24.9192 13.5299C24.1102 13.8796 22.9942 13.9808 22.1153 13.9808C19.6927 13.9808 19.0371 13.0055 19.0371 11.8324C19.0371 10.6363 19.8508 9.52754 22.0363 9.52754H23.5754V9.31132C23.5754 8.65805 23.3429 8.17961 22.1618 8.17501C21.5434 8.17501 20.7064 8.30382 20.2507 8.43263C20.0554 8.48324 19.9764 8.45563 19.9345 8.30382L19.7439 7.57235C19.702 7.42973 19.7299 7.35613 19.8694 7.30092C20.6367 7.02949 21.6271 6.92828 22.4269 6.92828C24.3241 6.92828 25.1889 7.75637 25.1889 9.24691V13.1067C25.1796 13.3091 25.1099 13.4379 24.9192 13.5299Z" fill="#929192"/>
<path d="M30.0299 8.22099C29.7416 8.22099 29.165 8.25779 28.5745 8.42801V12.5408C29.0162 12.6696 29.537 12.711 29.895 12.711C31.0343 12.711 31.7875 12.0946 31.7875 10.4568C31.7922 8.96626 31.1319 8.22099 30.0299 8.22099ZM29.9601 13.9808C29.0348 13.9808 27.9932 13.8519 27.1702 13.5161C27.0028 13.4563 26.9609 13.3597 26.9609 13.2079L26.9656 4.66484C26.9656 4.47162 27.0493 4.43481 27.2399 4.43481H28.3141C28.5047 4.43481 28.5745 4.46242 28.5745 4.66484V7.15828C29.1092 7.00647 29.7974 6.92826 30.2949 6.92826C32.4943 6.92826 33.4429 8.38201 33.4429 10.3924C33.4383 12.4534 32.392 13.9808 29.9601 13.9808Z" fill="#929192"/>
<path d="M36.3625 9.82658H39.5244C39.5244 8.91569 39.2222 8.17962 37.9853 8.17962C37.0088 8.17962 36.4183 8.96629 36.3625 9.82658ZM41.0635 9.78057C41.0635 10.6823 40.58 10.8985 39.9615 10.9123H36.3067C36.3299 12.251 37.1716 12.7019 38.2318 12.7019C38.8083 12.7019 39.4268 12.5454 39.8406 12.3522C40.0034 12.2878 40.0731 12.3016 40.1429 12.4304L40.5149 13.1665C40.5846 13.3091 40.5521 13.3965 40.4172 13.4655C39.729 13.8612 38.8362 13.99 38.0923 13.99C35.8789 13.99 34.6699 12.9227 34.6699 10.5028C34.6699 8.25322 36.0463 6.94209 37.9574 6.94209C40.0638 6.93749 41.0682 8.0278 41.0635 9.78057Z" fill="#929192"/>
<path d="M45.5558 13.5345C45.5837 13.7047 45.5698 13.7415 45.3884 13.8197C45.0304 13.9485 44.4957 13.9853 44.1376 13.9853C43.1193 13.9853 42.6543 13.5851 42.6543 12.481L42.6589 4.66021C42.6589 4.46699 42.7426 4.43939 42.9193 4.43939H44.0028C44.1981 4.43939 44.2771 4.46699 44.2771 4.66021L44.2725 12.1222C44.2725 12.573 44.3841 12.7018 44.7421 12.7018C44.8955 12.7018 45.1141 12.6742 45.235 12.6604C45.3884 12.6466 45.4396 12.6742 45.4535 12.8168L45.5558 13.5345Z" fill="#929192"/>
<path d="M49.7219 13.5345C49.7451 13.7001 49.7358 13.7415 49.5545 13.8197C49.2011 13.9485 48.6617 13.9853 48.3036 13.9853C47.2853 13.9853 46.8203 13.5851 46.8203 12.481L46.825 4.66021C46.825 4.46699 46.9087 4.43939 47.0854 4.43939H48.1688C48.3641 4.43939 48.4431 4.46699 48.4431 4.66021L48.4385 12.1222C48.4385 12.573 48.5501 12.7018 48.9081 12.7018C49.0616 12.7018 49.2801 12.6742 49.401 12.6604C49.5545 12.6466 49.6103 12.6696 49.6242 12.8122L49.7219 13.5345Z" fill="#929192"/>
<path d="M55.1076 10.6823H53.787C53.1825 10.6823 52.22 10.7559 52.22 11.7864C52.22 12.5179 52.7966 12.7755 53.6754 12.7755C53.9358 12.7755 54.624 12.7341 55.1076 12.5731V10.6823V10.6823ZM56.47 13.5392C55.6563 13.8888 54.545 13.9901 53.6661 13.9901C51.2482 13.9901 50.5879 13.0102 50.5879 11.8416C50.5879 10.6455 51.397 9.53682 53.5871 9.53682H55.1262V9.3206C55.1262 8.66273 54.8937 8.18889 53.7126 8.18889C53.0942 8.18889 52.2526 8.3177 51.8015 8.44651C51.6109 8.49712 51.5272 8.46951 51.4853 8.3177L51.2947 7.58163C51.2528 7.43901 51.2807 7.3654 51.4156 7.3102C52.1875 7.03877 53.1779 6.93756 53.973 6.93756C55.8702 6.93756 56.7351 7.76564 56.7351 9.25619V13.116C56.7304 13.3184 56.6607 13.4472 56.47 13.5392Z" fill="#929192"/>
<path d="M63.8585 13.8473H62.8123C62.6077 13.8473 62.4961 13.7967 62.4961 13.5759L62.5007 7.14907C62.5007 5.93915 63.0773 4.83044 64.9466 4.83504H68.8107C69.0571 4.83504 69.099 4.92244 69.099 5.12947V5.92534C69.099 6.14617 69.0432 6.21977 68.8107 6.21977H65.1279C64.4258 6.21977 64.1794 6.5004 64.1794 7.05706V8.56141H68.3038C68.541 8.56141 68.5782 8.62581 68.5782 8.86043V9.59651C68.5782 9.78973 68.5363 9.89094 68.3038 9.88634H64.184L64.1794 13.5759C64.1747 13.8105 64.105 13.8473 63.8585 13.8473Z" fill="#929192"/>
<path d="M71.8559 13.852H70.7957C70.619 13.852 70.5353 13.8106 70.5353 13.6312V7.31935C70.5353 7.13533 70.619 7.09853 70.7957 7.09853H71.8559C72.0558 7.09853 72.1303 7.12613 72.1303 7.31935L72.1256 13.6358C72.1302 13.8244 72.0605 13.852 71.8559 13.852ZM71.3491 6.26125C70.805 6.26125 70.3633 5.84721 70.3633 5.33656C70.3633 4.82131 70.8004 4.41187 71.3491 4.41187C71.8978 4.41187 72.3395 4.82131 72.3395 5.33656C72.3395 5.84721 71.8978 6.26125 71.3491 6.26125Z" fill="#929192"/>
<path d="M75.7902 8.30839V13.6311C75.7902 13.8243 75.7344 13.8519 75.5298 13.8519H74.4557C74.279 13.8519 74.1953 13.8105 74.1953 13.6311L74.2 8.12897C74.2 7.51251 74.3767 7.17668 75.1206 7.06167C75.5019 7.00646 76.4412 6.94666 76.9202 6.94666C79.3521 6.94666 80.4401 7.86215 80.4355 10.2406V13.6311C80.4355 13.8289 80.3797 13.8519 80.1751 13.8519H79.0917C78.9103 13.8519 78.8313 13.8105 78.8313 13.6311V10.213C78.8313 8.87425 78.4174 8.23018 76.8783 8.23018C76.683 8.23018 76.2878 8.23018 75.7902 8.30839Z" fill="#929192"/>
<path d="M86.4658 10.6914H85.1452C84.5407 10.6914 83.5782 10.7696 83.5782 11.7955C83.5782 12.527 84.1548 12.7846 85.0336 12.7846C85.294 12.7846 85.9822 12.7432 86.4658 12.5822V10.6914ZM87.8235 13.5437C87.0145 13.8933 85.8985 13.9946 85.0196 13.9946C82.6017 13.9946 81.9414 13.0147 81.9414 11.8461C81.9414 10.65 82.7505 9.54131 84.9406 9.54131H86.4844V9.32969C86.4844 8.67183 86.2472 8.19338 85.0661 8.19338C84.4477 8.19338 83.6107 8.32219 83.155 8.451C82.9644 8.50161 82.8807 8.47401 82.8388 8.31759L82.6435 7.58612C82.6063 7.4435 82.6296 7.3699 82.7691 7.31929C83.541 7.04787 84.5314 6.94666 85.3265 6.94666C87.2237 6.94666 88.0886 7.77014 88.0886 9.26528V13.1251C88.0886 13.3275 88.0188 13.4563 87.8235 13.5437Z" fill="#929192"/>
<path d="M91.4687 8.31299L91.4641 13.6357C91.4641 13.8289 91.4083 13.8565 91.2037 13.8565H90.1295C89.9528 13.8565 89.8691 13.8151 89.8691 13.6357V8.13357C89.8691 7.51711 90.0505 7.18128 90.7898 7.06627C91.1758 7.01106 92.1104 6.94666 92.594 6.94666C95.0305 6.94666 96.114 7.86215 96.114 10.2406V13.6357C96.1093 13.8289 96.0582 13.8565 95.8536 13.8565H94.7655C94.5888 13.8565 94.5051 13.8151 94.5051 13.6357L94.5097 10.213C94.5097 8.87885 94.0959 8.23478 92.5614 8.23478C92.3568 8.23478 91.9616 8.23478 91.4687 8.31299Z" fill="#929192"/>
<path d="M102.655 12.3524C102.86 12.2603 102.915 12.3017 102.971 12.4444L103.311 13.1896C103.408 13.3461 103.38 13.4381 103.227 13.5117C102.488 13.8981 101.539 13.9993 100.795 13.9993C98.7444 13.9993 97.6191 12.817 97.6191 10.526C97.6191 8.35456 98.8979 6.95142 100.948 6.95142C101.692 6.95142 102.423 7.09403 103.036 7.40226C103.204 7.47587 103.246 7.55408 103.143 7.71969L102.799 8.47877C102.729 8.62138 102.678 8.64438 102.46 8.57078C102.018 8.41436 101.539 8.28555 101.014 8.28555C99.7628 8.28555 99.2559 9.33905 99.2559 10.5214C99.2559 11.7175 99.6233 12.6836 101.041 12.6836C101.632 12.6882 102.269 12.518 102.655 12.3524Z" fill="#929192"/>
<path d="M106.265 13.8565H105.205C105.028 13.8565 104.944 13.8151 104.944 13.6357L104.949 7.31928C104.949 7.13987 105.033 7.10306 105.209 7.10306H106.27C106.474 7.10306 106.544 7.13067 106.544 7.31928L106.539 13.6357C106.539 13.8335 106.469 13.8565 106.265 13.8565ZM105.758 6.27038C105.205 6.27038 104.768 5.85634 104.768 5.34569C104.768 4.83044 105.209 4.4164 105.758 4.421C106.307 4.421 106.748 4.83504 106.748 5.34569C106.748 5.85634 106.311 6.27038 105.758 6.27038Z" fill="#929192"/>
<path d="M110.018 9.84503H113.179C113.179 8.92954 112.877 8.19807 111.64 8.19807C110.664 8.19807 110.073 8.98475 110.018 9.84503ZM114.719 9.79443C114.719 10.6961 114.235 10.9123 113.617 10.9261H109.962C109.985 12.2603 110.827 12.7157 111.887 12.7157C112.463 12.7157 113.082 12.5593 113.491 12.3661C113.654 12.3017 113.723 12.3155 113.793 12.4443L114.165 13.1804C114.23 13.323 114.207 13.4104 114.068 13.4794C113.379 13.875 112.487 14.0038 111.743 14.0038C109.529 14.0038 108.32 12.9365 108.32 10.5167C108.32 8.26708 109.697 6.95595 111.608 6.95595C113.719 6.95135 114.719 8.04626 114.719 9.79443Z" fill="#929192"/>
<path d="M117.623 13.8611H116.563C116.386 13.8611 116.303 13.8243 116.303 13.6449V8.12432C116.303 7.44345 116.484 7.13522 117.27 7.03401C117.6 6.99721 117.944 6.9696 118.288 6.9696C119.4 6.9696 120.474 7.22723 121.311 7.87129C121.436 7.9633 121.408 8.03691 121.353 8.11512L120.72 8.9662C120.622 9.10882 120.543 9.05821 120.418 8.98C119.892 8.55676 119.279 8.30834 118.549 8.30834C118.325 8.30834 118.107 8.32214 117.902 8.36354L117.898 13.6495C117.898 13.8381 117.833 13.8611 117.623 13.8611Z" fill="#929192"/>
<path d="M125.065 8.21646C123.883 8.21646 123.316 9.17795 123.316 10.4523C123.316 11.8646 123.744 12.7433 125.004 12.7433C126.297 12.7433 126.725 11.6852 126.725 10.4937C126.729 9.26076 126.399 8.21646 125.065 8.21646ZM124.99 14.0038C122.777 14.0038 121.693 12.7709 121.693 10.4937C121.698 8.24406 123.07 6.95593 125.041 6.95593C127.227 6.95593 128.366 8.28086 128.366 10.4569C128.361 12.7203 127.222 14.0038 124.99 14.0038Z" fill="#929192"/>
<path d="M237.041 27.0184C237.041 27.1427 236.986 27.2301 236.879 27.2807C236.748 27.3359 236.609 27.3819 236.465 27.4187C236.316 27.4509 236.167 27.4877 236.004 27.5061C235.856 27.5291 235.698 27.5429 235.549 27.5567C235.391 27.5613 235.256 27.5613 235.107 27.5613C234.73 27.5613 234.414 27.5291 234.163 27.4509C233.912 27.3819 233.712 27.2853 233.563 27.1611C233.414 27.0415 233.317 26.8988 233.261 26.7378C233.201 26.5722 233.168 26.3928 233.168 26.218C233.168 26.0202 233.205 25.8407 233.27 25.6659C233.335 25.4911 233.447 25.3393 233.596 25.2059C233.749 25.0725 233.94 24.962 234.182 24.8838C234.423 24.8056 234.712 24.7596 235.06 24.7596H236.028V24.6308C236.028 24.525 236.014 24.4284 235.99 24.341C235.967 24.2536 235.921 24.18 235.856 24.1156C235.791 24.0558 235.698 24.0052 235.586 23.9683C235.465 23.9269 235.321 23.9131 235.135 23.9131C234.935 23.9131 234.726 23.9269 234.493 23.9637C234.261 23.996 234.075 24.0282 233.926 24.0788L233.791 24.088L233.731 24.0006L233.61 23.5359C233.586 23.4485 233.61 23.3933 233.684 23.3703C233.926 23.2829 234.191 23.2139 234.489 23.1817C234.772 23.1495 235.042 23.1265 235.298 23.1265C235.902 23.1265 236.339 23.2507 236.623 23.4991C236.902 23.7521 237.041 24.111 237.041 24.5848V27.0184ZM236.018 25.4773H235.186C235.093 25.4773 234.986 25.4819 234.874 25.4957C234.758 25.5095 234.651 25.5325 234.549 25.5877C234.451 25.6383 234.368 25.7027 234.298 25.7947C234.233 25.8867 234.2 26.0202 234.2 26.1766C234.2 26.4112 234.284 26.5722 234.451 26.6596C234.623 26.7516 234.847 26.8068 235.116 26.8068C235.153 26.8068 235.214 26.8022 235.284 26.7976C235.353 26.793 235.442 26.793 235.516 26.7792C235.595 26.7654 235.679 26.7516 235.767 26.7378C235.856 26.7194 235.939 26.701 236.018 26.6688V25.4773V25.4773Z" fill="#47A01A"/>
<path d="M243.5 27.0184C243.5 27.1427 243.449 27.2301 243.337 27.2807C243.216 27.3359 243.072 27.3819 242.923 27.4187C242.779 27.4509 242.631 27.4877 242.477 27.5061C242.319 27.5291 242.166 27.5429 242.012 27.5567C241.859 27.5613 241.714 27.5613 241.575 27.5613C241.198 27.5613 240.878 27.5291 240.626 27.4509C240.375 27.3819 240.175 27.2853 240.027 27.1611C239.882 27.0415 239.78 26.8988 239.724 26.7378C239.664 26.5722 239.641 26.3928 239.641 26.218C239.641 26.0202 239.673 25.8407 239.743 25.6659C239.808 25.4911 239.91 25.3393 240.064 25.2059C240.217 25.0725 240.408 24.962 240.65 24.8838C240.887 24.8056 241.18 24.7596 241.524 24.7596H242.496V24.6308C242.496 24.525 242.486 24.4284 242.463 24.341C242.445 24.2536 242.393 24.18 242.328 24.1156C242.263 24.0558 242.17 24.0052 242.054 23.9683C241.942 23.9269 241.789 23.9131 241.608 23.9131C241.408 23.9131 241.194 23.9269 240.966 23.9637C240.738 23.996 240.547 24.0282 240.403 24.0788L240.268 24.088L240.203 24.0006L240.087 23.5359C240.064 23.4485 240.087 23.3933 240.166 23.3703C240.403 23.2829 240.673 23.2139 240.961 23.1817C241.249 23.1495 241.519 23.1265 241.775 23.1265C242.375 23.1265 242.817 23.2507 243.091 23.4991C243.375 23.7521 243.514 24.111 243.514 24.5848V27.0184H243.5ZM242.482 25.4773H241.645C241.547 25.4773 241.44 25.4819 241.324 25.4957C241.212 25.5095 241.105 25.5325 241.008 25.5877C240.91 25.6383 240.826 25.7027 240.757 25.7947C240.687 25.8867 240.659 26.0202 240.659 26.1766C240.659 26.4112 240.733 26.5722 240.91 26.6596C241.073 26.7516 241.296 26.8068 241.575 26.8068C241.617 26.8068 241.673 26.8022 241.738 26.7976C241.807 26.793 241.891 26.793 241.966 26.7792C242.049 26.7654 242.138 26.7516 242.221 26.7378C242.31 26.7194 242.393 26.701 242.472 26.6688V25.4773H242.482Z" fill="#47A01A"/>
<path d="M250.554 23.1219C251.219 23.1219 251.711 23.2875 252.028 23.6003C252.348 23.9224 252.507 24.3594 252.507 24.9115C252.507 25.0495 252.493 25.1691 252.455 25.2611C252.418 25.3485 252.367 25.4221 252.307 25.4773C252.246 25.5417 252.176 25.5739 252.093 25.5923C252.009 25.6107 251.916 25.6245 251.818 25.6245H249.512C249.517 25.8362 249.554 26.011 249.614 26.1536C249.684 26.3008 249.768 26.4112 249.875 26.4986C249.986 26.5906 250.116 26.655 250.256 26.6872C250.405 26.7286 250.563 26.747 250.726 26.747C250.912 26.747 251.093 26.7286 251.274 26.6872C251.451 26.6458 251.604 26.5906 251.739 26.5308C251.828 26.494 251.897 26.5078 251.935 26.5768L252.172 27.0415C252.209 27.1243 252.186 27.1841 252.107 27.2255C251.883 27.3497 251.646 27.4325 251.386 27.4877C251.126 27.5383 250.879 27.5567 250.642 27.5567C249.94 27.5567 249.41 27.3911 249.042 27.0323C248.67 26.6826 248.484 26.1306 248.484 25.3669C248.484 25.0127 248.536 24.6952 248.642 24.4192C248.745 24.134 248.884 23.8994 249.07 23.7153C249.256 23.5175 249.47 23.3749 249.726 23.2783C249.977 23.1725 250.256 23.1219 250.554 23.1219ZM250.568 23.9086C250.419 23.9086 250.279 23.9362 250.154 23.996C250.028 24.0512 249.926 24.1294 249.842 24.2214C249.758 24.3226 249.684 24.433 249.633 24.5572C249.577 24.6814 249.554 24.8057 249.549 24.9483H251.535C251.535 24.8011 251.521 24.6676 251.493 24.5388C251.465 24.4192 251.414 24.3134 251.339 24.2122C251.27 24.1248 251.172 24.0466 251.046 23.9914C250.93 23.9362 250.767 23.9086 250.568 23.9086Z" fill="#47A01A"/>
<path d="M260.973 27.0185C260.973 27.1427 260.917 27.2301 260.801 27.2807C260.68 27.3359 260.545 27.3819 260.392 27.4141C260.248 27.4463 260.094 27.4831 259.941 27.5015C259.783 27.5291 259.629 27.5429 259.48 27.5521C259.327 27.5567 259.183 27.5567 259.043 27.5567C258.657 27.5567 258.346 27.5245 258.09 27.4463C257.844 27.3773 257.644 27.2807 257.495 27.1565C257.351 27.0369 257.248 26.8943 257.183 26.7286C257.128 26.5676 257.1 26.3882 257.1 26.2134C257.1 26.0156 257.132 25.8362 257.202 25.6613C257.262 25.4865 257.379 25.3347 257.527 25.2013C257.672 25.0679 257.871 24.9575 258.109 24.8793C258.35 24.8011 258.639 24.7551 258.987 24.7551H259.955V24.6262C259.955 24.5204 259.945 24.4238 259.917 24.3364C259.899 24.249 259.852 24.1754 259.787 24.111C259.717 24.0512 259.629 24.0006 259.518 23.9638C259.401 23.9224 259.257 23.9086 259.066 23.9086C258.876 23.9086 258.657 23.9224 258.42 23.9592C258.192 23.9914 258.006 24.0236 257.862 24.0742L257.723 24.0834L257.662 23.996L257.541 23.5313C257.518 23.4439 257.541 23.3887 257.62 23.3657C257.862 23.2783 258.127 23.2139 258.416 23.1771C258.704 23.1449 258.978 23.1219 259.229 23.1219C259.829 23.1219 260.271 23.2461 260.55 23.4945C260.824 23.7475 260.968 24.1064 260.968 24.5802V27.0185H260.973ZM259.945 25.4773H259.118C259.02 25.4773 258.908 25.4911 258.801 25.4911C258.69 25.5049 258.583 25.5325 258.481 25.5831C258.378 25.6337 258.299 25.6981 258.23 25.7902C258.164 25.8822 258.127 26.011 258.127 26.172C258.127 26.4066 258.216 26.5676 258.378 26.655C258.55 26.747 258.769 26.8023 259.048 26.8023C259.09 26.8023 259.146 26.7977 259.211 26.7931C259.285 26.7885 259.364 26.7839 259.443 26.7746C259.522 26.7608 259.611 26.747 259.694 26.7286C259.787 26.7148 259.871 26.6918 259.945 26.6688V25.4773Z" fill="#47A01A"/>
<path d="M233.349 21.843C233.33 21.8108 233.275 21.797 233.196 21.797H230.764C230.471 21.797 230.224 21.8384 230.029 21.9166C229.834 21.9994 229.676 22.1052 229.555 22.2386C229.434 22.3767 229.345 22.5331 229.299 22.7079C229.252 22.8827 229.225 23.0667 229.225 23.2553V27.2991C229.225 27.3635 229.239 27.4096 229.276 27.4326L229.429 27.4648H229.699C229.88 27.4556 230.28 27.3635 230.28 26.8391V24.9805H232.875C232.949 24.9805 233 24.9575 233.019 24.9299L233.051 24.7919V24.3318C233.051 24.2536 233.042 24.2122 233.019 24.1846C233 24.1616 232.954 24.1432 232.875 24.1432H230.28V23.1955C230.28 23.0345 230.327 22.8965 230.42 22.8045C230.499 22.7171 230.657 22.6711 230.88 22.6711H233.196C233.27 22.6711 233.317 22.6619 233.344 22.6297C233.368 22.6021 233.377 22.5515 233.377 22.4825V21.9902C233.377 21.9166 233.363 21.8706 233.349 21.843Z" fill="#47A01A"/>
<path d="M248.013 24.433C247.934 24.157 247.818 23.9315 247.66 23.7337C247.501 23.5405 247.292 23.3933 247.046 23.2875C246.795 23.1725 246.492 23.1219 246.153 23.1219C245.995 23.1219 245.818 23.1357 245.618 23.1587C245.418 23.1863 245.237 23.2231 245.07 23.2691L245.06 21.6957C245.06 21.6313 245.051 21.5945 245.028 21.5761L244.898 21.5531H244.628C244.437 21.5669 244.07 21.6543 244.061 22.1558V27.069L244.084 27.1841L244.186 27.2531C244.442 27.3681 244.726 27.4371 245.037 27.4831C245.344 27.5291 245.646 27.5429 245.944 27.5429C246.32 27.5429 246.651 27.4877 246.93 27.3773C247.204 27.2669 247.432 27.1105 247.613 26.9034C247.794 26.701 247.92 26.4664 248.008 26.1858C248.097 25.9097 248.134 25.6107 248.134 25.2841C248.129 24.985 248.092 24.6998 248.013 24.433ZM247.009 25.9971C246.948 26.172 246.864 26.3192 246.767 26.4388C246.655 26.5492 246.534 26.6274 246.385 26.6872C246.241 26.7332 246.074 26.7654 245.897 26.7654C245.781 26.7654 245.646 26.7562 245.493 26.7424C245.344 26.7286 245.2 26.6964 245.06 26.655V24.0603C245.242 24.0143 245.423 23.9729 245.59 23.9591C245.762 23.9407 245.888 23.9315 245.986 23.9315C246.334 23.9315 246.599 24.0465 246.804 24.2812C246.995 24.5158 247.088 24.8746 247.088 25.3439C247.088 25.6015 247.064 25.8131 247.009 25.9971Z" fill="#47A01A"/>
<path d="M254.738 27.2806L254.677 26.8206L254.635 26.7378L254.542 26.724L254.389 26.7424L254.226 26.7516C254.114 26.7516 254.026 26.7286 253.994 26.6734C253.952 26.6228 253.933 26.5216 253.933 26.3882V21.6911L253.896 21.5807L253.761 21.5577H253.482C253.296 21.5761 252.929 21.6635 252.91 22.1465V26.6136C252.91 26.9632 252.989 27.2116 253.138 27.3496C253.287 27.4923 253.519 27.5613 253.845 27.5613C253.961 27.5613 254.096 27.5567 254.235 27.5475C254.384 27.5337 254.514 27.5015 254.631 27.4601L254.738 27.3957V27.2806V27.2806Z" fill="#47A01A"/>
<path d="M256.956 27.2806L256.9 26.8206L256.853 26.7378L256.756 26.724L256.607 26.7424L256.453 26.7516C256.332 26.7516 256.253 26.7286 256.212 26.6734C256.174 26.6228 256.156 26.5216 256.156 26.3882V21.6911L256.114 21.5807L255.984 21.5577H255.705C255.514 21.5761 255.142 21.6635 255.133 22.1741V26.6136C255.133 26.9632 255.207 27.2116 255.361 27.3496C255.509 27.4923 255.747 27.5613 256.067 27.5613C256.184 27.5613 256.314 27.5567 256.463 27.5475C256.612 27.5337 256.742 27.5015 256.858 27.4601L256.956 27.3957V27.2806V27.2806Z" fill="#47A01A"/>
<path d="M239.501 27.2761L239.44 26.8253L239.403 26.7425L239.296 26.7287L239.147 26.7471L238.989 26.7517C238.873 26.7517 238.794 26.7287 238.752 26.6781C238.71 26.6275 238.691 26.5262 238.691 26.3928V21.7004L238.659 21.59L238.524 21.567H238.245C238.054 21.5854 237.682 21.6728 237.678 22.1926V26.6229C237.678 26.9725 237.752 27.2209 237.901 27.3589C238.059 27.5015 238.287 27.566 238.617 27.566C238.729 27.566 238.859 27.5614 239.008 27.5522C239.152 27.5383 239.287 27.5107 239.398 27.4647L239.505 27.3957V27.2761H239.501Z" fill="#47A01A"/>
<path d="M236.947 16.9441L236.953 16.9388L236.947 16.9441Z" fill="#47A01A"/>
<path d="M261.731 18.2408L261.834 18.1442L261.731 18.2408L258.411 15.1447L258.676 15.0941C260.462 14.7399 261.652 13.6864 261.666 11.6622C261.662 9.30212 259.551 7.99099 257.44 7.98639H253.031L252.906 8.01399C252.873 8.03239 252.859 8.083 252.859 8.152V9.38953V18.4478C252.873 18.5214 252.897 18.5674 252.929 18.5766C252.966 18.595 253.017 18.5996 253.083 18.5904L253.106 18.5858L254.938 18.3374L255.031 18.3098C255.063 18.296 255.073 18.2408 255.073 18.1718V16.9343V10.0152H257.523C258.583 10.0152 259.499 10.7145 259.499 11.653C259.504 12.5776 258.765 13.0515 257.719 13.2953C256.649 13.5483 256.161 14.2476 256.156 14.9975C256.156 15.4759 256.356 15.9774 256.751 16.396C257.137 16.8423 257.36 17.0263 257.374 17.0355L260.304 19.8234C260.476 19.92 260.681 19.9844 260.918 19.9844C261.531 19.9844 262.048 19.5151 262.048 18.9493C262.043 18.6226 261.894 18.4018 261.731 18.2408Z" fill="#47A01A"/>
<path d="M250.046 7.58618C249.135 7.58618 248.61 8.19344 248.205 8.98932L245.694 13.9808L245.638 14.036L245.564 13.9808L243.43 10.5673L242.769 9.50917L242.653 9.41716H242.588L239.682 9.7944L239.593 9.8174C239.561 9.8358 239.547 9.88641 239.547 9.96002V11.1975V18.9447C239.547 19.506 240.054 19.9614 240.658 19.9614C241.258 19.9568 241.765 19.5014 241.765 18.9447V12.0348L245.629 18.0798L245.685 18.1166L245.741 18.0798L249.502 10.9261V18.9125L249.507 18.9079C249.516 18.9769 249.535 19.0183 249.572 19.0367L249.712 19.0459H249.725L251.576 18.8021H251.572L251.674 18.7745C251.702 18.7607 251.72 18.7147 251.72 18.6457V9.15494C251.72 8.30385 250.958 7.59538 250.046 7.58618Z" fill="#47A01A"/>
<path d="M237.923 15.5633C237.732 15.4529 237.518 15.3931 237.3 15.3931C236.988 15.3931 236.7 15.5081 236.504 15.7151C236.439 15.7841 236.291 15.913 236.239 15.9636C235.472 16.626 234.472 16.9941 233.426 16.9941C231.134 16.9941 229.274 15.2505 229.274 13.1113C229.274 10.9721 231.138 9.2239 233.426 9.2239C234.184 9.2331 235.226 9.36191 236.137 10.1716L236.16 10.19C236.188 10.2176 236.239 10.2176 236.318 10.2038L238.285 9.93697C238.476 9.90937 238.378 9.76675 238.378 9.76675C238.03 9.17789 236.583 7.08929 233.226 7.12609C229.688 7.15369 227.033 9.76215 227 13.1435C227.009 16.4512 229.888 19.1379 233.426 19.1425C235.812 19.1425 237.365 17.9694 238.09 17.2701C238.09 17.2701 238.453 16.8883 238.439 16.442C238.434 16.0786 238.239 15.7519 237.923 15.5633Z" fill="#47A01A"/>
<path d="M164.284 16.2995C162.828 18.3053 159.931 18.9171 157.69 17.6382C157.169 17.3392 156.481 16.8285 155.742 16.1844C151.617 17.2288 147 19.1701 147 21.3968C147 24.7367 157.309 27.428 160.866 27.428C164.423 27.428 167.306 24.7413 167.306 21.3968C167.306 19.2483 166.097 17.3622 164.284 16.2995Z" fill="#006726"/>
<path d="M164.283 16.2994C164.329 16.235 164.385 16.1706 164.427 16.097C165.84 13.9302 165.096 11.1055 162.785 9.79898C160.465 8.47405 152.616 6.42225 151.216 8.59367C150.128 10.2682 153.221 13.9808 155.745 16.1844C157.782 15.6692 159.693 15.3747 160.87 15.3747C162.12 15.3747 163.292 15.7152 164.283 16.2994Z" fill="#C3CC00"/>
<path d="M164.284 16.2994C163.294 15.7152 162.122 15.3748 160.866 15.3748C159.69 15.3748 157.779 15.6692 155.742 16.1844C156.477 16.8239 157.165 17.3392 157.69 17.6382C159.932 18.9171 162.829 18.3006 164.284 16.2994Z" fill="#143727"/>
<path d="M176.147 12.6834C176.384 12.7662 176.589 12.8859 176.765 13.0377C176.942 13.1803 177.086 13.3367 177.202 13.5253C177.309 13.7047 177.388 13.898 177.444 14.105C177.495 14.3074 177.523 14.5144 177.523 14.7306C177.523 15.1033 177.449 15.4437 177.291 15.7473C177.137 16.0556 176.928 16.3224 176.663 16.5386C176.393 16.764 176.077 16.9297 175.719 17.0447C175.366 17.1689 174.975 17.2241 174.566 17.2241H171.483C171.213 17.2241 171.023 17.1689 170.925 17.0631C170.827 16.9573 170.771 16.787 170.771 16.5478V9.61033C170.771 9.38031 170.832 9.21009 170.925 9.10428C171.023 8.99387 171.213 8.93407 171.483 8.93407L174.417 8.92487C174.803 8.92487 175.161 8.96627 175.5 9.03988C175.84 9.11808 176.128 9.2423 176.365 9.40791C176.602 9.57353 176.798 9.78515 176.937 10.0428C177.072 10.3096 177.147 10.6178 177.147 10.9813C177.147 11.3355 177.049 11.6575 176.854 11.9474C176.672 12.228 176.43 12.4534 176.147 12.6052V12.6834ZM172.32 12.1498H174.361C174.482 12.1498 174.608 12.1406 174.747 12.1084C174.882 12.0808 175.017 12.0302 175.133 11.9566C175.249 11.883 175.347 11.7771 175.421 11.6483C175.496 11.5195 175.538 11.3447 175.538 11.1285C175.538 10.8479 175.435 10.627 175.24 10.4568C175.035 10.2912 174.775 10.2084 174.436 10.2084H172.315V12.1498H172.32ZM175.933 14.634C175.933 14.2522 175.798 13.944 175.542 13.7047C175.287 13.4655 174.915 13.3459 174.417 13.3459H172.32V15.9268H174.403C174.71 15.9268 174.952 15.89 175.147 15.7979C175.342 15.7151 175.5 15.6139 175.617 15.4897C175.742 15.3609 175.821 15.2229 175.863 15.0757C175.905 14.9147 175.933 14.7628 175.933 14.634Z" fill="#424548"/>
<path d="M183.423 16.5479C183.423 16.7365 183.339 16.8653 183.181 16.9389C182.991 17.0172 182.8 17.0908 182.577 17.1414C182.363 17.192 182.144 17.238 181.916 17.2702C181.684 17.3024 181.461 17.3254 181.247 17.3346C181.014 17.3484 180.805 17.353 180.601 17.353C180.043 17.353 179.582 17.2932 179.215 17.192C178.852 17.0908 178.564 16.9481 178.345 16.7641C178.131 16.5893 177.983 16.3823 177.899 16.1431C177.815 15.9038 177.773 15.6462 177.773 15.384C177.773 15.1034 177.825 14.8411 177.918 14.5835C178.02 14.3259 178.173 14.1005 178.397 13.9072C178.615 13.7186 178.899 13.5576 179.247 13.4426C179.596 13.323 180.029 13.2678 180.535 13.2678H181.949V13.0654C181.949 12.9181 181.935 12.7801 181.898 12.6559C181.865 12.5271 181.8 12.4259 181.703 12.3293C181.605 12.2281 181.47 12.1591 181.303 12.1039C181.131 12.0579 180.912 12.0349 180.647 12.0349C180.359 12.0349 180.047 12.0579 179.712 12.1039C179.378 12.1499 179.103 12.2097 178.889 12.2695L178.689 12.2787L178.606 12.1499L178.429 11.4736C178.392 11.354 178.434 11.2666 178.536 11.2252C178.894 11.1056 179.28 11.0136 179.703 10.963C180.126 10.9123 180.517 10.8893 180.889 10.8893C181.768 10.8893 182.409 11.0688 182.814 11.4322C183.228 11.791 183.428 12.3201 183.428 13.0148V16.5479H183.423ZM181.93 14.3121H180.717C180.577 14.3121 180.424 14.3213 180.261 14.3351C180.098 14.3489 179.945 14.3949 179.796 14.4685C179.647 14.5329 179.522 14.6341 179.429 14.7721C179.336 14.9101 179.285 15.0942 179.285 15.3288C179.285 15.6738 179.406 15.9084 179.652 16.0419C179.898 16.1799 180.219 16.2397 180.624 16.2397C180.68 16.2397 180.768 16.2397 180.87 16.2351C180.977 16.2351 181.089 16.2259 181.205 16.2121C181.326 16.1891 181.447 16.1799 181.572 16.1523C181.703 16.1247 181.823 16.0971 181.935 16.0557V14.3121H181.93Z" fill="#424548"/>
<path d="M186.776 12.0578C186.683 12.0578 186.553 12.0624 186.381 12.067C186.204 12.067 186.004 12.0946 185.776 12.1268V17.0217L185.73 17.1873L185.534 17.2195H184.553L184.367 17.1873L184.307 17.0217V11.9612C184.307 11.676 184.362 11.4598 184.469 11.2988C184.581 11.1377 184.804 11.0319 185.153 10.9813C185.237 10.9721 185.348 10.9583 185.488 10.9445C185.627 10.9307 185.781 10.9215 185.943 10.9123C186.102 10.9031 186.26 10.8939 186.413 10.8847C186.562 10.8709 186.692 10.8709 186.799 10.8709C187.357 10.8709 187.836 10.9261 188.24 11.0319C188.654 11.1423 188.989 11.3218 189.254 11.561C189.519 11.8048 189.714 12.1176 189.84 12.4995C189.961 12.8905 190.026 13.3506 190.026 13.898V17.0217L189.975 17.1873L189.789 17.2195H188.798L188.617 17.1873L188.571 17.0217V13.8796C188.571 13.5668 188.538 13.3 188.492 13.0745C188.436 12.8445 188.338 12.6559 188.203 12.5041C188.068 12.3569 187.887 12.2464 187.655 12.1636C187.417 12.09 187.129 12.0578 186.776 12.0578Z" fill="#424548"/>
<path d="M193.824 16.1476C194.093 16.1476 194.368 16.1154 194.633 16.051C194.898 15.9912 195.126 15.9222 195.307 15.8394L195.502 15.8026L195.6 15.9222L195.912 16.6031C195.995 16.7319 195.972 16.8239 195.837 16.9021C195.488 17.0861 195.116 17.2057 194.717 17.2655C194.312 17.3253 193.94 17.3484 193.596 17.3484C192.652 17.3484 191.931 17.0861 191.429 16.5479C190.927 16.0096 190.676 15.2183 190.676 14.1602C190.676 13.668 190.75 13.2125 190.89 12.8077C191.034 12.4029 191.238 12.0532 191.503 11.768C191.773 11.4828 192.094 11.2527 192.471 11.1009C192.843 10.9491 193.266 10.8709 193.735 10.8709C194.08 10.8709 194.414 10.9077 194.74 10.9767C195.065 11.0411 195.368 11.1423 195.656 11.2896L195.795 11.4092L195.758 11.584L195.442 12.2787L195.335 12.3983C195.293 12.4167 195.228 12.3983 195.126 12.3523C194.926 12.2925 194.717 12.228 194.493 12.1682C194.275 12.1176 194.042 12.0992 193.796 12.0992C193.512 12.0992 193.266 12.159 193.061 12.2648C192.852 12.3845 192.685 12.5317 192.554 12.7203C192.424 12.9089 192.331 13.1297 192.271 13.3782C192.206 13.6312 192.178 13.8888 192.178 14.151C192.178 14.4317 192.201 14.6893 192.252 14.9285C192.299 15.1723 192.392 15.3794 192.512 15.5634C192.629 15.7428 192.796 15.8854 193.01 15.9866C193.229 16.097 193.503 16.1476 193.824 16.1476Z" fill="#424548"/>
<path d="M202.284 14.0912C202.284 15.1447 202.023 15.9452 201.507 16.5111C200.986 17.0723 200.214 17.353 199.182 17.353C198.164 17.353 197.406 17.0861 196.904 16.5341C196.401 15.9866 196.15 15.1862 196.15 14.128C196.15 13.6036 196.229 13.1482 196.383 12.7387C196.532 12.3385 196.741 12.0072 197.015 11.7266C197.28 11.4552 197.606 11.2436 197.978 11.0963C198.354 10.9583 198.768 10.8801 199.224 10.8801C200.228 10.8801 200.986 11.1608 201.507 11.7404C202.023 12.3017 202.284 13.0837 202.284 14.0912ZM200.777 14.1234C200.777 13.8382 200.754 13.5714 200.712 13.3138C200.665 13.0653 200.586 12.8353 200.47 12.6467C200.354 12.4489 200.2 12.2971 200.005 12.1821C199.805 12.0716 199.554 12.021 199.252 12.021C198.982 12.021 198.745 12.0716 198.54 12.1821C198.341 12.2787 198.168 12.4351 198.038 12.6145C197.903 12.7985 197.801 13.0147 197.745 13.2678C197.685 13.5208 197.648 13.7922 197.648 14.0912C197.648 14.7491 197.759 15.2598 197.992 15.6462C198.215 16.0234 198.62 16.2121 199.201 16.2121C199.498 16.2121 199.745 16.1523 199.949 16.0372C200.149 15.9222 200.312 15.775 200.433 15.5772C200.554 15.384 200.642 15.1678 200.698 14.9147C200.754 14.6571 200.777 14.3995 200.777 14.1234Z" fill="#424548"/>
<path d="M182.288 26.7517C182.288 26.9403 182.195 27.0737 182.037 27.1473C181.855 27.2209 181.651 27.2899 181.442 27.3451C181.218 27.4003 181 27.4417 180.772 27.4693C180.544 27.5062 180.316 27.5246 180.093 27.5384C179.865 27.5522 179.651 27.5522 179.447 27.5522C178.884 27.5522 178.419 27.5062 178.052 27.3957C177.68 27.2899 177.387 27.1473 177.168 26.9679C176.954 26.7839 176.806 26.5815 176.717 26.333C176.638 26.0938 176.592 25.8408 176.592 25.5694C176.592 25.2887 176.638 25.0265 176.741 24.7643C176.834 24.5067 176.992 24.2812 177.215 24.0834C177.447 23.8856 177.722 23.7338 178.08 23.6096C178.433 23.49 178.87 23.4301 179.372 23.4301H180.805V23.2323C180.805 23.0805 180.786 22.9379 180.753 22.8045C180.716 22.6803 180.656 22.5791 180.554 22.4779C180.456 22.3812 180.326 22.3122 180.158 22.257C179.982 22.2064 179.768 22.1788 179.489 22.1788C179.2 22.1788 178.884 22.2018 178.545 22.2524C178.205 22.2938 177.931 22.3444 177.712 22.418L177.512 22.4272L177.424 22.2938L177.252 21.613C177.21 21.4842 177.252 21.4013 177.359 21.3645C177.712 21.2403 178.103 21.1483 178.535 21.0931C178.959 21.0471 179.358 21.0241 179.73 21.0241C180.614 21.0241 181.256 21.2035 181.669 21.5716C182.083 21.935 182.293 22.4687 182.293 23.1679V26.7517H182.288ZM180.781 24.4929H179.554C179.41 24.4929 179.256 24.5021 179.089 24.5205C178.917 24.5389 178.763 24.5803 178.614 24.6493C178.47 24.7321 178.34 24.8241 178.247 24.9621C178.15 25.1001 178.098 25.2795 178.098 25.5188C178.098 25.8592 178.224 26.103 178.47 26.2364C178.712 26.3744 179.042 26.4434 179.451 26.4434C179.507 26.4434 179.591 26.4388 179.703 26.4342C179.81 26.4296 179.921 26.4204 180.037 26.402C180.158 26.3836 180.279 26.3744 180.414 26.3468C180.549 26.3192 180.674 26.2916 180.781 26.2502V24.4929V24.4929Z" fill="#929192"/>
<path d="M191.798 26.7517C191.798 26.9403 191.719 27.0737 191.556 27.1473C191.37 27.2209 191.17 27.2899 190.951 27.3451C190.738 27.4003 190.51 27.4417 190.282 27.4693C190.049 27.5062 189.831 27.5246 189.598 27.5384C189.375 27.5522 189.166 27.5522 188.957 27.5522C188.394 27.5522 187.934 27.5062 187.562 27.3957C187.19 27.2899 186.897 27.1473 186.678 26.9679C186.46 26.7839 186.306 26.5815 186.232 26.333C186.139 26.0938 186.102 25.8408 186.102 25.5694C186.102 25.2887 186.157 25.0265 186.25 24.7643C186.348 24.5067 186.501 24.2812 186.725 24.0834C186.948 23.8856 187.236 23.7338 187.58 23.6096C187.943 23.49 188.366 23.4301 188.873 23.4301H190.305V23.2323C190.305 23.0805 190.282 22.9379 190.249 22.8045C190.212 22.6803 190.156 22.5791 190.054 22.4779C189.956 22.3812 189.821 22.3122 189.649 22.257C189.477 22.2064 189.259 22.1788 188.989 22.1788C188.701 22.1788 188.385 22.2018 188.045 22.2524C187.706 22.2938 187.431 22.3444 187.222 22.418L187.022 22.4272L186.925 22.2938L186.748 21.613C186.711 21.4842 186.753 21.4013 186.864 21.3645C187.222 21.2403 187.608 21.1483 188.036 21.0931C188.468 21.0471 188.864 21.0241 189.231 21.0241C190.119 21.0241 190.765 21.2035 191.179 21.5716C191.588 21.935 191.793 22.4687 191.793 23.1679V26.7517H191.798ZM190.286 24.4929H189.068C188.919 24.4929 188.766 24.5021 188.599 24.5205C188.436 24.5389 188.278 24.5803 188.124 24.6493C187.985 24.7321 187.855 24.8241 187.757 24.9621C187.659 25.1001 187.608 25.2795 187.608 25.5188C187.608 25.8592 187.729 26.103 187.985 26.2364C188.227 26.3744 188.552 26.4434 188.961 26.4434C189.022 26.4434 189.105 26.4388 189.212 26.4342C189.315 26.4296 189.426 26.4204 189.547 26.402C189.668 26.3836 189.789 26.3744 189.924 26.3468C190.059 26.3192 190.175 26.2916 190.286 26.2502V24.4929V24.4929Z" fill="#929192"/>
<path d="M202.186 21.0241C203.162 21.0241 203.892 21.2587 204.362 21.728C204.832 22.1926 205.064 22.8413 205.064 23.6556C205.064 23.8672 205.046 24.0328 204.994 24.1708C204.943 24.2996 204.869 24.4054 204.776 24.4883C204.683 24.5711 204.576 24.6309 204.45 24.6539C204.325 24.6907 204.195 24.7045 204.05 24.7045H200.661C200.665 25.0219 200.716 25.2749 200.809 25.4866C200.902 25.6982 201.028 25.873 201.186 25.9972C201.349 26.126 201.535 26.2272 201.744 26.2732C201.963 26.3284 202.19 26.3652 202.437 26.3652C202.707 26.3652 202.981 26.3284 203.241 26.2686C203.506 26.2088 203.734 26.126 203.925 26.0432C204.06 25.988 204.157 26.0064 204.209 26.1168L204.553 26.7931C204.608 26.9219 204.581 27.0139 204.46 27.0691C204.139 27.2531 203.79 27.3819 203.399 27.4463C203.018 27.52 202.655 27.5522 202.302 27.5522C201.274 27.5522 200.489 27.2991 199.949 26.7747C199.405 26.2686 199.131 25.4451 199.131 24.3272C199.131 23.8028 199.21 23.3289 199.363 22.9195C199.512 22.5147 199.721 22.165 199.991 21.889C200.265 21.5992 200.582 21.3875 200.958 21.2495C201.33 21.0977 201.749 21.0241 202.186 21.0241ZM202.209 22.1788C201.986 22.1788 201.777 22.2202 201.6 22.303C201.414 22.3904 201.265 22.5055 201.14 22.6435C201.019 22.7907 200.907 22.9563 200.828 23.1357C200.754 23.3151 200.712 23.5084 200.707 23.7016H203.637C203.637 23.49 203.618 23.2921 203.576 23.1081C203.534 22.9241 203.46 22.7723 203.353 22.6251C203.246 22.4871 203.102 22.3766 202.921 22.2984C202.739 22.2202 202.497 22.1788 202.209 22.1788Z" fill="#929192"/>
<path d="M217.525 26.7517C217.525 26.9403 217.436 27.0737 217.278 27.1473C217.097 27.2209 216.892 27.2899 216.674 27.3451C216.455 27.4003 216.227 27.4417 216.004 27.4693C215.772 27.5062 215.539 27.5246 215.32 27.5384C215.093 27.5522 214.879 27.5522 214.669 27.5522C214.116 27.5522 213.647 27.5062 213.279 27.3957C212.912 27.2899 212.614 27.1473 212.396 26.9679C212.186 26.7839 212.033 26.5815 211.945 26.333C211.861 26.0938 211.814 25.8408 211.814 25.5694C211.814 25.2887 211.866 25.0265 211.963 24.7643C212.056 24.5067 212.219 24.2812 212.442 24.0834C212.661 23.8856 212.949 23.7338 213.298 23.6096C213.651 23.49 214.084 23.4301 214.595 23.4301H216.023V23.2323C216.023 23.0805 216.009 22.9379 215.971 22.8045C215.939 22.6803 215.865 22.5791 215.776 22.4779C215.679 22.3812 215.544 22.3122 215.376 22.257C215.2 22.2064 214.99 22.1788 214.711 22.1788C214.428 22.1788 214.102 22.2018 213.767 22.2524C213.428 22.2938 213.154 22.3444 212.935 22.418L212.735 22.4272L212.647 22.2938L212.465 21.613C212.433 21.4842 212.47 21.4013 212.582 21.3645C212.935 21.2403 213.33 21.1483 213.753 21.0931C214.181 21.0471 214.581 21.0241 214.948 21.0241C215.832 21.0241 216.483 21.2035 216.897 21.5716C217.297 21.935 217.515 22.4687 217.515 23.1679V26.7517H217.525ZM216.018 24.4929H214.795C214.651 24.4929 214.497 24.5021 214.325 24.5205C214.163 24.5389 214.005 24.5803 213.851 24.6493C213.707 24.7321 213.586 24.8241 213.488 24.9621C213.386 25.1001 213.34 25.2795 213.34 25.5188C213.34 25.8592 213.465 26.103 213.712 26.2364C213.953 26.3744 214.288 26.4434 214.693 26.4434C214.758 26.4434 214.832 26.4388 214.944 26.4342C215.055 26.4296 215.167 26.4204 215.283 26.402C215.4 26.3836 215.52 26.3744 215.655 26.3468C215.795 26.3192 215.911 26.2916 216.018 26.2502V24.4929V24.4929Z" fill="#929192"/>
<path d="M176.844 19.1333C176.821 19.0872 176.737 19.0688 176.626 19.0688H173.041C172.613 19.0688 172.25 19.1287 171.962 19.2575C171.669 19.3725 171.436 19.5289 171.264 19.7267C171.083 19.9245 170.957 20.1546 170.883 20.4122C170.813 20.6652 170.771 20.9412 170.771 21.2219V27.1933C170.771 27.2899 170.799 27.3589 170.851 27.3911L171.069 27.4325H171.474C171.748 27.4187 172.329 27.2899 172.329 26.5078V23.7613H176.142C176.263 23.7613 176.333 23.7429 176.356 23.6923L176.403 23.4807V22.809C176.403 22.6894 176.389 22.625 176.356 22.5882C176.333 22.5514 176.258 22.5284 176.142 22.5284H172.329V21.1345C172.329 20.8814 172.39 20.6882 172.534 20.5548C172.659 20.4306 172.887 20.357 173.213 20.357H176.626C176.742 20.357 176.807 20.3386 176.844 20.2972C176.872 20.2604 176.895 20.1868 176.895 20.0855V19.3449C176.895 19.2575 176.872 19.1793 176.844 19.1333Z" fill="#929192"/>
<path d="M198.453 22.9563C198.341 22.556 198.164 22.2202 197.932 21.9304C197.695 21.6498 197.393 21.4197 197.025 21.2679C196.653 21.0977 196.216 21.0333 195.705 21.0333C195.468 21.0333 195.212 21.0425 194.919 21.0793C194.621 21.1161 194.356 21.1713 194.11 21.2357L194.096 18.9309C194.096 18.8343 194.082 18.7745 194.045 18.7515L193.859 18.7147H193.454C193.171 18.7331 192.631 18.8711 192.617 19.6163V26.8529L192.654 27.0231L192.808 27.1335C193.189 27.2945 193.608 27.4003 194.068 27.4601C194.524 27.5245 194.965 27.5567 195.402 27.5567C195.96 27.5567 196.449 27.4739 196.858 27.3129C197.262 27.1381 197.597 26.9127 197.858 26.6044C198.123 26.3146 198.318 25.9604 198.434 25.5509C198.56 25.1461 198.62 24.7091 198.62 24.226C198.62 23.7706 198.564 23.3473 198.453 22.9563ZM196.965 25.2565C196.886 25.5141 196.76 25.735 196.611 25.9006C196.453 26.0662 196.267 26.1766 196.049 26.264C195.83 26.3422 195.588 26.3744 195.323 26.3744C195.156 26.3744 194.951 26.3698 194.733 26.3422C194.51 26.3238 194.305 26.287 194.091 26.218V22.4042C194.361 22.326 194.626 22.2662 194.872 22.2478C195.123 22.2202 195.319 22.211 195.454 22.211C195.97 22.211 196.365 22.3766 196.653 22.7263C196.942 23.0621 197.086 23.5865 197.086 24.2812C197.09 24.6677 197.053 24.9943 196.965 25.2565Z" fill="#929192"/>
<path d="M208.35 27.1381L208.262 26.4711L208.197 26.3423L208.048 26.3239L207.829 26.3515L207.592 26.3699C207.42 26.3699 207.299 26.3285 207.239 26.2503C207.188 26.1766 207.155 26.0386 207.155 25.827V18.9125L207.095 18.7469L206.899 18.7055H206.49C206.216 18.7285 205.676 18.8665 205.648 19.5796V26.1582C205.648 26.6781 205.76 27.0415 205.983 27.2486C206.202 27.4556 206.551 27.5568 207.029 27.5568C207.201 27.5568 207.387 27.5522 207.611 27.5292C207.825 27.5062 208.015 27.4694 208.183 27.4004L208.341 27.3038V27.1381H208.35Z" fill="#929192"/>
<path d="M211.614 27.1381L211.526 26.4711L211.465 26.3423L211.321 26.3239L211.098 26.3515L210.866 26.3699C210.698 26.3699 210.582 26.3285 210.521 26.2503C210.461 26.1766 210.438 26.0386 210.438 25.827V18.9125L210.382 18.7469L210.182 18.7055H209.768C209.485 18.7285 208.94 18.8665 208.922 19.621V26.1582C208.922 26.6781 209.038 27.0415 209.252 27.2486C209.48 27.4556 209.824 27.5568 210.303 27.5568C210.475 27.5568 210.661 27.5522 210.889 27.5292C211.098 27.5062 211.298 27.4694 211.47 27.4004L211.619 27.3038V27.1381H211.614Z" fill="#929192"/>
<path d="M185.91 27.1381L185.817 26.4711L185.757 26.3423L185.613 26.3239L185.39 26.3515L185.157 26.3699C184.985 26.3699 184.873 26.3285 184.808 26.2503C184.752 26.1766 184.72 26.0386 184.72 25.827V18.9125L184.664 18.7469L184.473 18.7055H184.055C183.776 18.7285 183.223 18.8665 183.223 19.6302V26.1582C183.223 26.6781 183.33 27.0415 183.544 27.2486C183.771 27.4556 184.115 27.5568 184.599 27.5568C184.762 27.5568 184.962 27.5522 185.18 27.5292C185.39 27.5062 185.585 27.4694 185.752 27.4004L185.91 27.3038V27.1381V27.1381Z" fill="#929192"/>
<path d="M282.834 12.8813C281.676 11.7358 280.077 11.0273 278.31 11.0273C276.543 11.0273 274.943 11.7358 273.786 12.8813C272.86 13.7968 272.223 14.9883 272 16.3178V16.5892C273.86 16.1568 276.083 15.9452 278.31 15.9452C280.537 15.9452 282.765 16.1568 284.624 16.5892V16.3316C284.401 14.9929 283.76 13.7968 282.834 12.8813Z" fill="#47A01A"/>
<path d="M283.494 7.36072H273.129C272.506 7.36072 272.004 7.86217 272.004 8.47863V13.2355C273.357 11.2113 275.677 9.87257 278.314 9.87257C280.955 9.87257 283.275 11.2113 284.624 13.2355V8.47863C284.619 7.86217 284.117 7.36072 283.494 7.36072Z" fill="#47A01A"/>
<path d="M278.882 17.0999V23.3887C278.882 23.9638 279.356 24.433 279.937 24.433C280.523 24.433 280.993 23.9638 280.993 23.3887C280.993 23.0759 281.249 22.8275 281.565 22.8275C281.881 22.8275 282.132 23.0805 282.132 23.3887C282.132 24.5895 281.151 25.5602 279.937 25.5602C278.728 25.5602 277.743 24.5895 277.743 23.3887V17.0999C275.673 17.1367 273.632 17.3621 272 17.7762V26.6229C272 27.2393 272.507 27.7362 273.13 27.7362H283.495C284.118 27.7362 284.624 27.2347 284.624 26.6229V17.7716C282.988 17.3621 280.951 17.1367 278.882 17.0999Z" fill="#47A01A"/>
<path d="M295.799 22.3813H294.874C294.762 22.3813 294.651 22.3859 294.525 22.3997C294.395 22.4135 294.279 22.4503 294.167 22.5101C294.056 22.5745 293.963 22.6573 293.888 22.7769C293.819 22.8965 293.781 23.0575 293.781 23.2553C293.781 23.5498 293.874 23.7568 294.06 23.8718C294.246 23.9914 294.497 24.0466 294.804 24.0466C294.851 24.0466 294.911 24.042 294.995 24.0374C295.074 24.0328 295.162 24.0282 295.251 24.0098C295.339 23.996 295.437 23.9822 295.534 23.9592C295.637 23.9362 295.725 23.9132 295.809 23.8764V22.3813H295.799ZM296.939 24.318C296.939 24.4791 296.878 24.5895 296.753 24.6539C296.613 24.7229 296.46 24.7827 296.302 24.8287C296.134 24.8747 295.967 24.9161 295.795 24.9391C295.623 24.9667 295.451 24.9851 295.279 24.9943C295.107 25.0035 294.944 25.0081 294.79 25.0081C294.367 25.0081 294.014 24.9621 293.735 24.8701C293.456 24.7781 293.233 24.6539 293.07 24.5021C292.907 24.3456 292.796 24.1662 292.73 23.9592C292.665 23.7522 292.633 23.5314 292.633 23.3013C292.633 23.0575 292.67 22.8321 292.744 22.6113C292.814 22.3905 292.935 22.1926 293.102 22.027C293.274 21.8614 293.488 21.728 293.753 21.6222C294.023 21.521 294.349 21.4704 294.73 21.4704H295.809V21.2955C295.809 21.1667 295.795 21.0471 295.771 20.9367C295.744 20.8309 295.697 20.7343 295.623 20.6515C295.548 20.5733 295.446 20.5089 295.32 20.4675C295.186 20.4215 295.023 20.3985 294.818 20.3985C294.6 20.3985 294.363 20.4215 294.107 20.4629C293.846 20.4997 293.642 20.5457 293.479 20.6055C293.409 20.6239 293.358 20.6285 293.33 20.6193C293.298 20.6055 293.279 20.5687 293.265 20.5043L293.13 19.92C293.102 19.8096 293.13 19.7406 293.219 19.7084C293.484 19.6026 293.781 19.5198 294.102 19.4738C294.423 19.4324 294.725 19.4094 295.009 19.4094C295.678 19.4094 296.167 19.5658 296.478 19.8786C296.79 20.1914 296.948 20.6515 296.948 21.2541V24.318H296.939Z" fill="#8C9091"/>
<path d="M302.988 22.3813H302.062C301.951 22.3813 301.834 22.3859 301.709 22.3997C301.583 22.4135 301.467 22.4503 301.356 22.5101C301.244 22.5745 301.146 22.6573 301.077 22.7769C301.002 22.8965 300.97 23.0575 300.97 23.2553C300.97 23.5498 301.063 23.7568 301.249 23.8718C301.435 23.9914 301.676 24.0466 301.993 24.0466C302.039 24.0466 302.1 24.042 302.179 24.0374C302.253 24.0328 302.341 24.0282 302.434 24.0098C302.523 23.996 302.616 23.9822 302.718 23.9592C302.82 23.9362 302.909 23.9132 302.992 23.8764V22.3813H302.988ZM304.127 24.318C304.127 24.4791 304.066 24.5895 303.941 24.6539C303.801 24.7229 303.648 24.7827 303.485 24.8287C303.318 24.8747 303.155 24.9161 302.978 24.9391C302.806 24.9667 302.634 24.9851 302.462 24.9943C302.29 25.0035 302.132 25.0081 301.979 25.0081C301.555 25.0081 301.202 24.9621 300.923 24.8701C300.644 24.7781 300.421 24.6539 300.258 24.5021C300.095 24.3456 299.984 24.1662 299.919 23.9592C299.854 23.7522 299.816 23.5314 299.816 23.3013C299.816 23.0575 299.858 22.8321 299.933 22.6113C300.007 22.3905 300.123 22.1926 300.291 22.027C300.458 21.8614 300.672 21.728 300.937 21.6222C301.207 21.521 301.532 21.4704 301.914 21.4704H302.997V21.2955C302.997 21.1667 302.983 21.0471 302.955 20.9367C302.932 20.8309 302.881 20.7343 302.811 20.6515C302.737 20.5733 302.634 20.5089 302.504 20.4675C302.374 20.4215 302.206 20.3985 302.002 20.3985C301.783 20.3985 301.546 20.4215 301.286 20.4629C301.03 20.4997 300.821 20.5457 300.658 20.6055C300.588 20.6239 300.537 20.6285 300.509 20.6193C300.477 20.6055 300.453 20.5687 300.44 20.5043L300.305 19.92C300.277 19.8096 300.309 19.7406 300.393 19.7084C300.663 19.6026 300.96 19.5198 301.281 19.4738C301.602 19.4324 301.904 19.4094 302.188 19.4094C302.857 19.4094 303.346 19.5658 303.657 19.8786C303.969 20.1914 304.127 20.6515 304.127 21.2495V24.318V24.318Z" fill="#8C9091"/>
<path d="M311.994 20.3939C311.822 20.3939 311.669 20.4307 311.534 20.4997C311.394 20.5733 311.278 20.6745 311.19 20.7941C311.092 20.9183 311.013 21.0563 310.957 21.2128C310.897 21.3692 310.864 21.5302 310.864 21.705H313.078C313.078 21.521 313.064 21.3508 313.026 21.1944C312.998 21.0379 312.943 20.8999 312.859 20.7803C312.78 20.6607 312.673 20.5641 312.534 20.4951C312.394 20.4307 312.217 20.3939 311.994 20.3939ZM311.98 19.4048C312.72 19.4048 313.268 19.6072 313.622 20.0074C313.98 20.4123 314.156 20.9597 314.156 21.6636C314.156 21.843 314.138 21.9856 314.101 22.1053C314.059 22.2157 314.003 22.3077 313.938 22.3813C313.868 22.4503 313.784 22.5009 313.691 22.5239C313.598 22.5515 313.496 22.5653 313.384 22.5653H310.822C310.827 22.8367 310.864 23.0529 310.939 23.237C311.008 23.4164 311.106 23.5636 311.227 23.674C311.352 23.789 311.492 23.8672 311.65 23.9132C311.813 23.9592 311.985 23.9868 312.171 23.9868C312.375 23.9868 312.58 23.9592 312.78 23.904C312.975 23.8534 313.152 23.7844 313.296 23.7062C313.398 23.6602 313.468 23.6786 313.51 23.766L313.77 24.3457C313.812 24.4607 313.789 24.5343 313.701 24.5849C313.454 24.7459 313.194 24.8517 312.901 24.9115C312.613 24.9759 312.338 25.0035 312.073 25.0035C311.297 25.0035 310.701 24.7827 310.292 24.3365C309.883 23.8948 309.674 23.191 309.674 22.2295C309.674 21.7786 309.73 21.3784 309.851 21.0241C309.962 20.6699 310.125 20.3709 310.325 20.1317C310.534 19.8878 310.771 19.7038 311.055 19.5842C311.334 19.4692 311.645 19.4048 311.98 19.4048Z" fill="#8C9091"/>
<path d="M322.434 22.3812H321.509C321.402 22.3812 321.281 22.3858 321.16 22.3996C321.035 22.4134 320.918 22.4502 320.802 22.51C320.69 22.5745 320.597 22.6619 320.523 22.7769C320.449 22.8965 320.411 23.0575 320.411 23.2553C320.411 23.5497 320.504 23.7568 320.69 23.8718C320.876 23.9868 321.123 24.0466 321.434 24.0466C321.481 24.0466 321.541 24.042 321.62 24.0374C321.699 24.0328 321.788 24.0282 321.876 24.0098C321.969 23.996 322.062 23.9822 322.16 23.9592C322.262 23.9362 322.35 23.9132 322.434 23.8764V22.3812ZM323.573 24.318C323.573 24.479 323.513 24.5895 323.387 24.6539C323.248 24.7229 323.099 24.7781 322.936 24.8287C322.769 24.8747 322.602 24.9161 322.43 24.9391C322.253 24.9667 322.081 24.9851 321.913 24.9943C321.741 25.0035 321.583 25.0081 321.425 25.0081C321.002 25.0081 320.653 24.9621 320.37 24.8701C320.091 24.7781 319.872 24.6539 319.705 24.502C319.542 24.3456 319.43 24.1662 319.365 23.9592C319.305 23.7522 319.268 23.5313 319.268 23.3013C319.268 23.0575 319.305 22.8321 319.379 22.6113C319.449 22.3904 319.574 22.1926 319.742 22.027C319.905 21.8614 320.123 21.728 320.388 21.6222C320.653 21.5209 320.979 21.4703 321.365 21.4703H322.443V21.3001C322.443 21.1713 322.434 21.0517 322.406 20.9413C322.378 20.8355 322.327 20.7389 322.257 20.6561C322.183 20.5779 322.081 20.5134 321.955 20.472C321.83 20.426 321.658 20.403 321.453 20.403C321.235 20.403 320.997 20.426 320.737 20.4674C320.481 20.5042 320.277 20.5503 320.114 20.6101C320.044 20.6285 319.988 20.6331 319.96 20.6239C319.928 20.6101 319.905 20.5733 319.895 20.5088L319.76 19.9246C319.737 19.8142 319.765 19.7452 319.849 19.713C320.119 19.6072 320.411 19.5244 320.732 19.4783C321.058 19.4369 321.355 19.4139 321.639 19.4139C322.309 19.4139 322.802 19.5704 323.108 19.8832C323.42 20.196 323.573 20.6561 323.573 21.2541V24.318Z" fill="#8C9091"/>
<path d="M292.827 17.7808C292.803 17.7394 292.748 17.7256 292.659 17.7256H289.948C289.623 17.7256 289.348 17.7762 289.13 17.882C288.911 17.9832 288.735 18.1166 288.6 18.2868C288.46 18.4617 288.367 18.6549 288.316 18.8757C288.265 19.0965 288.232 19.3265 288.232 19.5704V24.6861C288.232 24.7735 288.251 24.8333 288.288 24.8563C288.33 24.8839 288.381 24.8977 288.456 24.8977H288.763C288.972 24.8839 289.409 24.7689 289.409 24.1018V21.7464H292.296C292.385 21.7464 292.436 21.728 292.459 21.6866C292.482 21.6452 292.496 21.59 292.496 21.5118V20.9321C292.496 20.8309 292.487 20.7757 292.459 20.7435C292.436 20.7113 292.389 20.6929 292.296 20.6929H289.409V19.4968C289.409 19.2805 289.455 19.1103 289.562 18.9999C289.66 18.8849 289.832 18.8297 290.078 18.8297H292.659C292.743 18.8297 292.799 18.8113 292.822 18.7745C292.85 18.7469 292.864 18.6825 292.864 18.5905V17.9602C292.864 17.882 292.85 17.8176 292.827 17.7808Z" fill="#8C9091"/>
<path d="M308.032 23.0345C307.967 23.2599 307.874 23.4439 307.763 23.5865C307.642 23.7291 307.507 23.8349 307.344 23.8993C307.181 23.9637 306.995 23.9959 306.795 23.9959C306.665 23.9959 306.517 23.9913 306.349 23.9683C306.186 23.9545 306.024 23.9177 305.866 23.8625V20.587C306.07 20.518 306.265 20.4766 306.456 20.4582C306.647 20.4352 306.791 20.4214 306.893 20.4214C307.279 20.4214 307.581 20.5686 307.805 20.8676C308.023 21.1575 308.13 21.6083 308.13 22.2064C308.125 22.533 308.097 22.809 308.032 23.0345ZM309.153 21.0563C309.065 20.7158 308.934 20.426 308.758 20.1776C308.581 19.9337 308.358 19.7405 308.074 19.6071C307.795 19.4645 307.465 19.4001 307.079 19.4001C306.902 19.4001 306.707 19.4139 306.484 19.4461C306.261 19.4783 306.056 19.5243 305.87 19.5841L305.861 17.6013C305.861 17.5185 305.852 17.4679 305.819 17.4449C305.796 17.4219 305.745 17.4173 305.675 17.4173H305.373C305.159 17.4357 304.75 17.5507 304.74 18.1856V24.3962C304.74 24.456 304.75 24.502 304.768 24.548C304.787 24.5848 304.829 24.6124 304.88 24.64C305.168 24.7826 305.484 24.8746 305.828 24.9252C306.172 24.985 306.507 25.008 306.837 25.008C307.256 25.008 307.623 24.9344 307.935 24.7964C308.237 24.6538 308.493 24.456 308.693 24.1984C308.893 23.9407 309.041 23.6417 309.13 23.2921C309.223 22.947 309.269 22.5652 309.269 22.1558C309.283 21.7601 309.241 21.3921 309.153 21.0563Z" fill="#8C9091"/>
<path d="M316.634 24.6538L316.568 24.0787C316.564 24.0235 316.55 23.9913 316.527 23.9683C316.503 23.9545 316.471 23.9499 316.415 23.9545C316.373 23.9591 316.313 23.9637 316.248 23.9729C316.183 23.9821 316.117 23.9821 316.071 23.9821C315.945 23.9821 315.857 23.9499 315.811 23.8855C315.764 23.8257 315.745 23.7015 315.745 23.5221V17.5875C315.745 17.5093 315.731 17.4633 315.699 17.4449C315.671 17.4219 315.62 17.4127 315.55 17.4127H315.239C315.029 17.4311 314.625 17.5461 314.602 18.1579V23.8073C314.602 24.2489 314.685 24.5618 314.857 24.7366C315.025 24.916 315.285 25.0034 315.648 25.0034C315.773 25.0034 315.918 24.9942 316.08 24.9804C316.243 24.962 316.392 24.9298 316.517 24.87C316.582 24.8332 316.624 24.8056 316.634 24.7826C316.648 24.7688 316.648 24.7228 316.634 24.6538Z" fill="#8C9091"/>
<path d="M319.104 24.6538L319.038 24.0787C319.029 24.0235 319.02 23.9913 318.997 23.9683C318.978 23.9545 318.936 23.9499 318.885 23.9545C318.839 23.9591 318.783 23.9637 318.718 23.9729C318.653 23.9821 318.592 23.9821 318.541 23.9821C318.411 23.9821 318.327 23.9499 318.281 23.8855C318.239 23.8257 318.22 23.7015 318.22 23.5221V17.5875C318.22 17.5093 318.201 17.4633 318.174 17.4449C318.146 17.4219 318.095 17.4127 318.025 17.4127H317.713C317.499 17.4311 317.085 17.5507 317.076 18.1947V23.8073C317.076 24.2489 317.16 24.5618 317.327 24.7366C317.495 24.916 317.755 25.0034 318.118 25.0034C318.248 25.0034 318.392 24.9942 318.56 24.9804C318.718 24.962 318.866 24.9298 318.997 24.87C319.062 24.8332 319.099 24.8056 319.108 24.7826C319.118 24.7688 319.118 24.7228 319.104 24.6538Z" fill="#8C9091"/>
<path d="M299.676 24.6538L299.611 24.0787C299.601 24.0235 299.587 23.9913 299.569 23.9683C299.546 23.9545 299.508 23.9499 299.457 23.9545C299.415 23.9591 299.355 23.9637 299.29 23.9729C299.22 23.9821 299.164 23.9821 299.113 23.9821C298.988 23.9821 298.899 23.9499 298.853 23.8855C298.806 23.8257 298.783 23.7015 298.783 23.5221V17.5875C298.783 17.5093 298.769 17.4633 298.741 17.4449C298.709 17.4219 298.667 17.4127 298.592 17.4127H298.281C298.067 17.4311 297.648 17.5507 297.648 18.2039V23.8073C297.648 24.2489 297.732 24.5618 297.9 24.7366C298.067 24.916 298.327 25.0034 298.69 25.0034C298.816 25.0034 298.96 24.9942 299.127 24.9758C299.285 24.9574 299.434 24.9252 299.564 24.87C299.629 24.8332 299.666 24.8056 299.68 24.7826C299.69 24.7688 299.69 24.7228 299.676 24.6538Z" fill="#8C9091"/>
<path d="M288.452 9.44936C288.452 9.15494 288.503 8.88351 288.601 8.63968C288.698 8.39586 288.847 8.17964 289.043 8.00482C289.242 7.8254 289.489 7.68739 289.786 7.58618C290.084 7.48957 290.433 7.43896 290.837 7.43896C291.023 7.43896 291.223 7.44817 291.423 7.46657C291.628 7.48957 291.832 7.51717 292.032 7.54938C292.237 7.58618 292.432 7.63218 292.623 7.68739C292.814 7.74259 292.99 7.807 293.148 7.87601C293.204 7.91281 293.237 7.94501 293.255 7.97262C293.269 8.00022 293.26 8.05083 293.237 8.11983L292.981 8.8375C292.953 8.91571 292.93 8.95711 292.907 8.96172C292.879 8.97092 292.841 8.96632 292.781 8.95251C292.432 8.8329 292.088 8.74089 291.753 8.68569C291.419 8.62588 291.107 8.59368 290.814 8.59368C290.451 8.59368 290.186 8.66729 290.024 8.8191C289.861 8.97092 289.777 9.14573 289.777 9.35275C289.777 9.48157 289.805 9.59198 289.866 9.69319C289.921 9.7944 290.024 9.89561 290.154 9.98762C290.289 10.0842 290.451 10.1762 290.651 10.2728C290.851 10.3695 291.098 10.4707 291.381 10.5857C291.684 10.7099 291.972 10.8433 292.246 10.9675C292.516 11.0963 292.758 11.2481 292.967 11.4276C293.181 11.6024 293.344 11.8048 293.469 12.044C293.59 12.2786 293.651 12.5639 293.651 12.8997C293.651 13.2677 293.581 13.5852 293.446 13.8566C293.307 14.1234 293.125 14.3488 292.888 14.5237C292.656 14.6985 292.377 14.8319 292.051 14.9193C291.73 15.0067 291.381 15.0527 291.014 15.0527C290.572 15.0527 290.107 15.0113 289.624 14.9285C289.14 14.8457 288.689 14.6893 288.275 14.4639C288.178 14.4225 288.154 14.3396 288.215 14.2108L288.531 13.4978C288.582 13.392 288.657 13.3598 288.764 13.4012C289.098 13.5392 289.447 13.6542 289.805 13.7508C290.168 13.8474 290.512 13.8934 290.851 13.8934C291.386 13.8934 291.763 13.8014 291.981 13.6174C292.2 13.438 292.311 13.2079 292.311 12.9365C292.311 12.7847 292.283 12.6559 292.228 12.5455C292.172 12.4351 292.084 12.3338 291.963 12.2372C291.846 12.1406 291.693 12.0532 291.512 11.9612C291.33 11.8738 291.112 11.7818 290.861 11.6806C290.484 11.5334 290.145 11.3862 289.842 11.2389C289.54 11.0917 289.289 10.9353 289.084 10.7605C288.88 10.5903 288.726 10.3971 288.619 10.1808C288.508 9.96461 288.452 9.72079 288.452 9.44936Z" fill="#424548"/>
<path d="M296.649 9.27911C297.458 9.27911 298.053 9.48613 298.444 9.90018C298.835 10.3142 299.03 10.8801 299.03 11.6069C299.03 11.7864 299.011 11.9382 298.965 12.0578C298.923 12.1774 298.867 12.274 298.783 12.343C298.709 12.412 298.616 12.4626 298.518 12.4902C298.416 12.5178 298.305 12.5316 298.188 12.5316H295.389C295.394 12.8077 295.44 13.0331 295.515 13.2217C295.589 13.4057 295.696 13.5621 295.831 13.6771C295.966 13.7922 296.114 13.875 296.291 13.9256C296.468 13.9716 296.654 13.9992 296.858 13.9992C297.082 13.9992 297.305 13.9716 297.519 13.9118C297.737 13.8566 297.928 13.7922 298.086 13.714C298.198 13.6679 298.277 13.6863 298.318 13.7784L298.602 14.3764C298.649 14.4868 298.625 14.5696 298.528 14.6202C298.263 14.7813 297.97 14.8917 297.654 14.9561C297.337 15.0205 297.04 15.0481 296.747 15.0481C295.901 15.0481 295.25 14.8227 294.803 14.3626C294.352 13.9072 294.129 13.1849 294.129 12.1958C294.129 11.7312 294.194 11.3217 294.32 10.9583C294.445 10.5948 294.617 10.2912 294.84 10.0428C295.064 9.79436 295.329 9.60115 295.635 9.47233C295.947 9.34352 296.286 9.27911 296.649 9.27911ZM296.672 10.3004C296.482 10.3004 296.314 10.3372 296.166 10.4108C296.021 10.4844 295.896 10.5856 295.789 10.7099C295.682 10.8387 295.598 10.9813 295.538 11.1423C295.473 11.3033 295.44 11.4689 295.436 11.6483H297.849C297.849 11.4597 297.835 11.2803 297.798 11.1193C297.765 10.9583 297.705 10.8203 297.616 10.6961C297.528 10.5718 297.407 10.4752 297.258 10.4062C297.105 10.3372 296.914 10.3004 296.672 10.3004Z" fill="#424548"/>
<path d="M304.117 14.427C304.117 14.9055 304.057 15.3103 303.941 15.6507C303.82 15.9866 303.643 16.2672 303.406 16.4926C303.173 16.718 302.881 16.8883 302.536 17.0171C302.188 17.1459 301.783 17.2379 301.323 17.3023C301.202 17.3253 301.137 17.2885 301.123 17.1873L301.016 16.3868C301.011 16.2948 301.053 16.2396 301.141 16.2166C301.397 16.1752 301.634 16.1246 301.853 16.0648C302.067 16.005 302.248 15.9222 302.402 15.8209C302.55 15.7197 302.667 15.5955 302.746 15.4437C302.825 15.2919 302.867 15.1079 302.867 14.8825V14.8134C302.662 14.8779 302.443 14.9239 302.211 14.9561C301.978 14.9883 301.76 15.0067 301.565 15.0067C301.151 15.0067 300.793 14.9377 300.49 14.8042C300.188 14.6662 299.942 14.4776 299.747 14.2292C299.547 13.9854 299.402 13.6909 299.309 13.3505C299.216 13.0101 299.17 12.6328 299.17 12.2234C299.17 11.8001 299.221 11.4091 299.328 11.0549C299.43 10.696 299.593 10.3878 299.812 10.1348C300.03 9.87716 300.304 9.67934 300.639 9.52752C300.969 9.38031 301.369 9.3067 301.83 9.3067C302.188 9.3067 302.55 9.3343 302.922 9.38491C303.294 9.43551 303.638 9.53212 303.955 9.67474C304.024 9.71154 304.071 9.74375 304.094 9.78055C304.113 9.82195 304.122 9.87256 304.122 9.92316V14.427H304.117ZM300.43 12.159C300.43 12.78 300.546 13.2309 300.788 13.5207C301.025 13.8105 301.355 13.9532 301.779 13.9532C301.89 13.9532 302.048 13.944 302.243 13.921C302.448 13.9026 302.662 13.8566 302.881 13.7967V10.4614C302.713 10.4108 302.541 10.374 302.36 10.3556C302.183 10.3326 302.02 10.3188 301.881 10.3188C301.662 10.3188 301.462 10.3556 301.286 10.42C301.109 10.489 300.955 10.5902 300.83 10.7374C300.704 10.8801 300.607 11.0687 300.537 11.3033C300.463 11.5333 300.43 11.8186 300.43 12.159Z" fill="#424548"/>
<path d="M307.428 13.9946C307.502 13.9946 307.614 13.9946 307.758 13.99C307.898 13.9854 308.065 13.967 308.256 13.9348V9.57821C308.256 9.5046 308.27 9.45399 308.298 9.43099C308.321 9.41259 308.377 9.39879 308.456 9.39879H309.274C309.344 9.39879 309.395 9.41259 309.427 9.43099C309.46 9.45399 309.474 9.5 309.474 9.57821V14.0821C309.474 14.3259 309.418 14.5237 309.307 14.6663C309.19 14.8089 309.014 14.9055 308.767 14.9561C308.674 14.9699 308.567 14.9837 308.451 14.9975C308.335 15.0067 308.209 15.0205 308.084 15.0251C307.958 15.0343 307.833 15.0389 307.712 15.0389C307.595 15.0435 307.488 15.0435 307.395 15.0435C306.916 15.0435 306.517 14.9975 306.186 14.8963C305.856 14.7951 305.591 14.6433 305.387 14.4317C305.187 14.2155 305.033 13.9348 304.94 13.5944C304.847 13.2494 304.801 12.8353 304.801 12.3523V9.57361C304.801 9.5 304.815 9.44939 304.843 9.42639C304.871 9.40339 304.926 9.38959 305.001 9.38959H305.819C305.889 9.38959 305.94 9.40339 305.973 9.42179C306.005 9.44479 306.019 9.4908 306.019 9.569V12.3707C306.019 12.6421 306.038 12.8813 306.075 13.0838C306.112 13.2862 306.177 13.4564 306.279 13.5898C306.382 13.7232 306.521 13.8244 306.703 13.8888C306.898 13.9578 307.135 13.9946 307.428 13.9946Z" fill="#424548"/>
<path d="M311.45 14.9009C311.417 14.9239 311.366 14.9331 311.287 14.9331H310.473C310.404 14.9331 310.352 14.9239 310.32 14.9009C310.287 14.8825 310.273 14.8319 310.273 14.7536V10.2406C310.273 9.95997 310.32 9.74835 310.418 9.61034C310.515 9.47693 310.711 9.38492 311.013 9.34351C311.138 9.32971 311.264 9.31591 311.394 9.30671C311.524 9.29751 311.654 9.29291 311.789 9.29291C312.217 9.29291 312.631 9.34811 313.026 9.45852C313.421 9.56893 313.779 9.76215 314.105 10.0244C314.151 10.0612 314.175 10.0934 314.175 10.1256C314.17 10.1578 314.161 10.19 314.137 10.2268L313.654 10.9215C313.617 10.9767 313.584 11.0043 313.547 10.9951C313.514 10.9905 313.468 10.9675 313.421 10.9307C313.217 10.7559 312.998 10.6224 312.766 10.5258C312.533 10.4292 312.273 10.3832 311.999 10.3832C311.915 10.3832 311.831 10.3878 311.743 10.3924C311.659 10.4016 311.58 10.4108 311.501 10.4246V14.749C311.501 14.8319 311.482 14.8779 311.45 14.9009Z" fill="#424548"/>
<path d="M319.126 12.1406C319.126 13.0745 318.912 13.7922 318.479 14.2936C318.051 14.7951 317.41 15.0481 316.554 15.0481C315.703 15.0481 315.071 14.8043 314.657 14.3167C314.239 13.829 314.029 13.1159 314.029 12.1728C314.029 11.7082 314.094 11.3034 314.22 10.9445C314.346 10.5857 314.518 10.2821 314.745 10.0382C314.969 9.7944 315.238 9.60578 315.55 9.47697C315.861 9.34816 316.205 9.28375 316.587 9.28375C317.424 9.28375 318.056 9.53678 318.484 10.0428C318.912 10.5489 319.126 11.2527 319.126 12.1406ZM317.875 12.1728C317.875 11.9198 317.856 11.6806 317.814 11.4552C317.777 11.2297 317.712 11.0273 317.614 10.8571C317.521 10.6869 317.391 10.5489 317.224 10.4477C317.061 10.3511 316.852 10.3005 316.601 10.3005C316.378 10.3005 316.182 10.3511 316.01 10.4431C315.843 10.5397 315.703 10.6685 315.592 10.8295C315.48 10.9905 315.396 11.1837 315.345 11.4092C315.294 11.6346 315.266 11.8784 315.266 12.1406C315.266 12.7295 315.364 13.1895 315.55 13.5254C315.736 13.8612 316.075 14.0268 316.559 14.0268C316.805 14.0268 317.01 13.9762 317.177 13.875C317.345 13.7738 317.484 13.6404 317.582 13.4702C317.684 13.3 317.758 13.1067 317.805 12.8813C317.851 12.6559 317.875 12.4213 317.875 12.1728Z" fill="#424548"/>
<path d="M323.489 13.3828C323.489 13.6634 323.433 13.9118 323.331 14.1188C323.224 14.3305 323.08 14.5007 322.889 14.6387C322.708 14.7767 322.489 14.8779 322.234 14.9469C321.978 15.0113 321.708 15.0481 321.411 15.0481C321.243 15.0481 321.062 15.0389 320.871 15.0205C320.681 15.0021 320.495 14.9745 320.304 14.9423C320.113 14.9101 319.932 14.8595 319.755 14.7997C319.579 14.7445 319.416 14.6663 319.272 14.5881C319.165 14.5329 319.142 14.4455 319.197 14.3351L319.453 13.7462C319.486 13.6818 319.523 13.6404 319.555 13.6266C319.593 13.6082 319.648 13.6174 319.723 13.6542C319.974 13.7738 320.257 13.8658 320.564 13.9302C320.871 13.9946 321.146 14.0314 321.383 14.0314C321.676 14.0314 321.899 13.9716 322.043 13.8612C322.187 13.7462 322.266 13.5944 322.266 13.415C322.266 13.2125 322.173 13.0515 321.983 12.9319C321.797 12.8123 321.508 12.6835 321.132 12.5455C320.848 12.4397 320.597 12.3339 320.383 12.228C320.169 12.1176 319.992 12.0026 319.853 11.8738C319.713 11.745 319.607 11.5978 319.532 11.4368C319.458 11.2758 319.425 11.0871 319.425 10.8755C319.425 10.6455 319.467 10.4339 319.551 10.2406C319.639 10.0474 319.765 9.87721 319.927 9.7392C320.095 9.60118 320.304 9.48617 320.546 9.40796C320.792 9.32516 321.081 9.28375 321.401 9.28375C321.694 9.28375 321.987 9.31136 322.285 9.36196C322.578 9.41257 322.866 9.49537 323.136 9.61038C323.192 9.63799 323.224 9.67479 323.238 9.7162C323.247 9.7576 323.247 9.8082 323.233 9.86341L322.992 10.4615C322.973 10.5167 322.945 10.5489 322.913 10.5581C322.88 10.5627 322.838 10.5581 322.782 10.5397C322.508 10.4431 322.266 10.3741 322.062 10.3419C321.852 10.3051 321.634 10.2867 321.392 10.2867C321.132 10.2867 320.946 10.3419 320.825 10.4477C320.704 10.5581 320.648 10.6823 320.648 10.8111C320.648 10.9077 320.667 10.9951 320.704 11.0641C320.746 11.1377 320.806 11.2021 320.89 11.2573C320.974 11.3218 321.081 11.3816 321.22 11.4414C321.36 11.5058 321.527 11.5702 321.722 11.6438C321.945 11.7266 322.164 11.814 322.378 11.9106C322.592 12.0026 322.778 12.1176 322.95 12.251C323.113 12.3845 323.247 12.5409 323.345 12.7249C323.438 12.9043 323.489 13.1251 323.489 13.3828Z" fill="#424548"/>
<path d="M138.158 0H137.693V34.4482H138.158V0Z" fill="#929192"/>
<path d="M128.342 17.2241H0.0175781V17.6842H128.342V17.2241Z" fill="#929192"/>
<path d="M37.4689 30.11C39.3789 30.11 40.1389 29.03 40.1389 27.27C40.1389 26.01 40.1489 25.08 40.1489 23.21C40.1489 23.03 40.0889 23 39.9189 23H39.1489C38.9989 23 38.9189 23.03 38.9189 23.21L38.9289 27.14C38.9289 28.33 38.5789 29.01 37.4389 29.01C36.8589 29.01 36.2589 28.85 35.8189 28.65C35.6989 28.6 35.6289 28.6 35.5789 28.71L35.2789 29.35C35.1989 29.52 35.2389 29.55 35.3389 29.61C35.9689 29.99 36.8989 30.11 37.4689 30.11Z" fill="#929192"/>
<path d="M46.2106 27.35C46.2106 25.66 45.3806 24.63 43.7906 24.63C42.3606 24.63 41.3606 25.63 41.3606 27.38C41.3606 29.15 42.1506 30.11 43.7606 30.11C45.3806 30.11 46.2106 29.11 46.2106 27.35ZM45.0206 27.38C45.0206 28.31 44.7106 29.13 43.7706 29.13C42.8506 29.13 42.5406 28.45 42.5406 27.35C42.5406 26.36 42.9506 25.61 43.8106 25.61C44.7806 25.61 45.0206 26.42 45.0206 27.38Z" fill="#929192"/>
<path d="M52.0026 27.32C52.0026 25.76 51.3126 24.63 49.7126 24.63C49.3526 24.63 48.8526 24.69 48.4626 24.81V22.87C48.4626 22.71 48.4126 22.69 48.2726 22.69H47.4926C47.3526 22.69 47.2926 22.72 47.2926 22.87V29.51C47.2926 29.63 47.3226 29.7 47.4426 29.75C48.0426 30.01 48.8026 30.11 49.4726 30.11C51.2426 30.11 52.0026 28.92 52.0026 27.32ZM50.8026 27.37C50.8026 28.64 50.2526 29.12 49.4226 29.12C49.1626 29.12 48.7826 29.09 48.4626 28.99V25.79C48.8926 25.66 49.3126 25.63 49.5226 25.63C50.3226 25.63 50.8026 26.21 50.8026 27.37Z" fill="#929192"/>
<path d="M60.2158 26.09C60.6658 25.84 61.0058 25.31 61.0058 24.72C61.0058 23.48 60.0858 22.98 58.8458 22.98L56.5258 22.99C56.1058 22.99 55.9658 23.17 55.9658 23.56V29.43C55.9658 29.83 56.1058 30 56.5258 30H58.9658C60.2658 30 61.3058 29.15 61.3058 27.89C61.3058 27.18 60.9758 26.45 60.2158 26.16V26.09ZM60.0458 27.81C60.0458 28.27 59.7858 28.9 58.8358 28.9H57.1858V26.72H58.8458C59.6258 26.72 60.0458 27.17 60.0458 27.81ZM57.1858 24.07H58.8658C59.3958 24.07 59.7358 24.37 59.7358 24.85C59.7358 25.56 59.1858 25.71 58.8058 25.71H57.1858V24.07Z" fill="#929192"/>
<path d="M67.1365 27.35C67.1365 25.66 66.3065 24.63 64.7165 24.63C63.2865 24.63 62.2865 25.63 62.2865 27.38C62.2865 29.15 63.0765 30.11 64.6865 30.11C66.3065 30.11 67.1365 29.11 67.1365 27.35ZM65.9465 27.38C65.9465 28.31 65.6365 29.13 64.6965 29.13C63.7765 29.13 63.4665 28.45 63.4665 27.35C63.4665 26.36 63.8765 25.61 64.7365 25.61C65.7065 25.61 65.9465 26.42 65.9465 27.38Z" fill="#929192"/>
<path d="M72.4884 29.43V26.43C72.4884 25.27 71.8584 24.63 70.4784 24.63C69.8984 24.63 69.1784 24.71 68.6184 24.92C68.5184 24.96 68.4984 25.02 68.5284 25.13L68.6684 25.7C68.6984 25.82 68.7584 25.84 68.8984 25.8C69.2284 25.7 69.8384 25.6 70.2884 25.6C71.1484 25.6 71.3184 25.97 71.3184 26.48V26.65H70.1984C68.6084 26.65 68.0184 27.51 68.0184 28.44C68.0184 29.35 68.4984 30.11 70.2584 30.11C70.8984 30.11 71.7084 30.03 72.2984 29.76C72.4384 29.69 72.4884 29.59 72.4884 29.43ZM71.3084 29.01C70.9584 29.14 70.4584 29.17 70.2684 29.17C69.6284 29.17 69.2084 28.97 69.2084 28.4C69.2084 27.6 69.9084 27.54 70.3484 27.54H71.3084V29.01Z" fill="#929192"/>
<path d="M75.0148 29.83V25.72C75.1648 25.69 75.3248 25.68 75.4848 25.68C76.0148 25.68 76.4648 25.87 76.8448 26.2C76.9348 26.26 76.9948 26.3 77.0648 26.19L77.5248 25.53C77.5648 25.47 77.5848 25.41 77.4948 25.34C76.8848 24.84 76.1048 24.64 75.2948 24.64C75.0448 24.64 74.7948 24.66 74.5548 24.69C73.9848 24.77 73.8548 25.01 73.8548 25.54V29.83C73.8548 29.97 73.9148 30 74.0448 30H74.8148C74.9648 30 75.0148 29.98 75.0148 29.83Z" fill="#929192"/>
<path d="M77.7538 27.45C77.7538 29.04 78.3838 30.11 80.1638 30.11C80.6238 30.11 82.4438 30 82.4438 29.5V22.87C82.4438 22.72 82.3838 22.7 82.2538 22.7H81.4738C81.3238 22.7 81.2738 22.72 81.2738 22.87V24.76C80.8438 24.65 80.4638 24.64 80.2038 24.64C78.4838 24.64 77.7538 25.95 77.7538 27.45ZM78.9638 27.45C78.9638 26.15 79.5338 25.64 80.3138 25.64C80.5838 25.64 80.8638 25.66 81.2738 25.76V28.97C81.0438 29.06 80.6038 29.12 80.3238 29.12C79.4638 29.12 78.9638 28.68 78.9638 27.45Z" fill="#929192"/>
</svg>
